<svg width="16" height="16" viewBox="0 0 16 16" fill="none" xmlns="http://www.w3.org/2000/svg">
<g id="handshake">
<path id="Vector" d="M10.9866 6.94168C10.7266 7.20168 10.2933 7.20168 10.0333 6.94168L7.05331 3.96835L2.35331 8.66168L1.91331 8.24168C1.13331 7.46168 1.13331 6.19502 1.91331 5.41502L4.73997 2.58835C5.51997 1.80835 6.78664 1.80835 7.56664 2.58835L10.9866 6.00168C11.2466 6.26168 11.2466 6.68168 10.9866 6.94168ZM11.4533 5.52835C11.9733 6.04835 11.9733 6.89502 11.4533 7.41502C10.6066 8.26168 9.71331 7.56168 9.56664 7.41502L7.05997 4.90835L3.34664 8.62168C3.08664 8.88168 3.08664 9.30168 3.34664 9.56168C3.60664 9.82168 4.02664 9.82168 4.29331 9.56168L7.37331 6.48168L7.84664 6.95502L4.76664 10.035C4.50664 10.295 4.50664 10.715 4.76664 10.975C5.02664 11.235 5.44664 11.235 5.71331 10.975L8.79331 7.89502L9.26664 8.36835L6.18664 11.4483C5.92664 11.7084 5.92664 12.1284 6.18664 12.3884C6.44664 12.6483 6.86664 12.6483 7.12664 12.3884L10.2066 9.30835L10.68 9.78168L7.59997 12.8617C7.33997 13.1217 7.33997 13.5417 7.59997 13.8017C7.85997 14.0617 8.27997 14.0617 8.53997 13.8017L14.0866 8.24168C14.8666 7.46168 14.8666 6.19502 14.0866 5.41502L11.26 2.58835C10.4933 1.82168 9.25331 1.80835 8.47331 2.54835L11.4533 5.52835Z" fill="#333333"/>
</g>
</svg>
